<!DOCTYPE svg PUBLIC "-//W3C//DTD SVG 1.1//EN" "http://www.w3.org/Graphics/SVG/1.1/DTD/svg11.dtd">
<!-- Uploaded to: SVG Repo, www.svgrepo.com, Transformed by: SVG Repo Mixer Tools -->
<svg height="800px" width="800px" version="1.1" id="Layer_1" xmlns="http://www.w3.org/2000/svg" xmlns:xlink="http://www.w3.org/1999/xlink" viewBox="-51.2 -51.2 614.40 614.40" xml:space="preserve" fill="#000000">
<g id="SVGRepo_bgCarrier" stroke-width="0"/>
<g id="SVGRepo_tracerCarrier" stroke-linecap="round" stroke-linejoin="round"/>
<g id="SVGRepo_iconCarrier"> <g> <path style="fill:#fffc41;" d="M366.783,152.611c2.185-0.149,4.402-0.266,6.661-0.341c5.649-0.191,11.053-0.501,16.212-0.917 c0.01,0,0.01,0,0.01,0c111.801-9.103,111.672-69.997,111.672-69.997s7.632,100.343-87.925,110.884 c-98.732,10.883-135.037,85.793-135.037,85.793l-42.646-33.672c0,0,5.287-15.913,19.623-34.514 C274.125,185.493,308.436,156.523,366.783,152.611z"/> <path style="fill:#fffc41;" d="M257.231,133.564c13.1-6.715,27.894-11.906,44.522-14.72c7.503-1.268,15.381-2.057,23.642-2.281 C453.461,113.13,453.29,45.659,453.29,45.659s6.267,82.371-63.623,105.693c0,0,0,0-0.011,0c-5.159,0.415-10.563,0.724-16.212,0.917 c-2.259,0.075-4.477,0.191-6.661,0.341c-58.347,3.912-92.658,32.883-111.428,57.238c-14.336,18.599-19.623,34.514-19.623,34.514 c-9.198-6.896-42.22-5.659-68.835-2.249l1.098-2.75c0,0,14.88-46.046,54.541-81.765 C232.492,148.635,244.003,140.321,257.231,133.564z"/> </g> <path style="fill:#DBB67E;" d="M448.355,466.344H229.198l-23.897-74.633l33.384-6.321c33.106-6.267,55.107-37.871,49.5-71.095 C388.666,377.876,448.355,466.344,448.355,466.344z"/> <path style="fill:#DBB67E;" d="M73.216,403.361l-38.52-19.985c32.648-49.819,88.554-132.107,104.254-136.242 c6.694-1.759,16.755-3.581,27.948-5.02c26.615-3.411,59.637-4.647,68.835,2.249l42.646,33.672 c3.411,3.506,6.864,18.823,9.806,36.261c5.607,33.224-16.394,64.827-49.5,71.095l-33.384,6.321l-18.919,3.581L76.404,457.934 c-7.589,4.317-17.043,3.485-23.758-2.089L10.51,420.873C43.585,448,73.216,403.361,73.216,403.361z"/> <path style="fill:#000000;" d="M34.696,383.375l38.522,19.985c0,0-29.631,44.639-62.706,17.512 C10.51,420.873,20.36,405.258,34.696,383.375z"/> <path d="M500.93,70.85c-5.651,0.221-10.115,4.872-10.103,10.527c0.001,0.413-0.708,33.495-53.903,50.605 c9.168-10.829,16.183-23.952,20.82-39.154c7.659-25.112,6.1-47.044,6.029-47.966c-0.429-5.639-5.242-9.926-10.895-9.707 c-5.652,0.222-10.116,4.876-10.101,10.532c0.001,0.572-1.203,57.245-117.667,60.367c-8.355,0.226-16.653,1.025-24.682,2.36 c-0.029,0.004-0.059,0.009-0.089,0.014c-0.112,0.019-0.228,0.033-0.341,0.052c-16.721,2.829-32.723,8.123-47.551,15.723 c-0.022,0.012-0.044,0.024-0.066,0.035c-0.046,0.024-0.091,0.048-0.137,0.073c-12.994,6.661-25.339,15.215-36.695,25.434 c-0.034,0.029-0.066,0.059-0.1,0.089c-35.256,31.774-51.741,70.8-56.193,82.718c-9.035,1.32-17.042,2.854-22.988,4.417 c-6.583,1.734-21.998,5.795-110.357,140.627c-0.004,0.007-0.009,0.014-0.014,0.021c-14.221,21.707-24.184,37.492-24.282,37.649 c-0.076,0.12-0.137,0.243-0.207,0.365c-0.084,0.145-0.171,0.289-0.248,0.436c-0.077,0.149-0.142,0.302-0.21,0.453 c-0.069,0.152-0.145,0.303-0.206,0.457c-0.08,0.199-0.144,0.402-0.211,0.605c-0.056,0.17-0.11,0.34-0.158,0.512 c-0.068,0.251-0.134,0.503-0.183,0.756c-0.022,0.111-0.034,0.223-0.052,0.334c-0.035,0.212-0.069,0.425-0.09,0.638 c-0.013,0.124-0.016,0.247-0.023,0.371c-0.013,0.201-0.025,0.402-0.027,0.602c-0.001,0.132,0.006,0.264,0.011,0.396 c0.006,0.191,0.013,0.383,0.029,0.573c0.012,0.139,0.03,0.276,0.047,0.415c0.023,0.182,0.047,0.362,0.08,0.542 c0.026,0.145,0.057,0.288,0.088,0.431c0.038,0.17,0.079,0.341,0.125,0.509c0.041,0.148,0.084,0.294,0.131,0.439 c0.052,0.161,0.108,0.321,0.168,0.479c0.056,0.148,0.112,0.294,0.175,0.439c0.066,0.154,0.138,0.304,0.211,0.454 c0.07,0.144,0.14,0.288,0.217,0.429c0.081,0.149,0.17,0.294,0.26,0.441c0.082,0.135,0.162,0.27,0.25,0.402 c0.103,0.154,0.217,0.3,0.328,0.448c0.088,0.117,0.171,0.237,0.265,0.35c0.151,0.184,0.315,0.36,0.482,0.535 c0.066,0.069,0.125,0.144,0.193,0.212c0.232,0.233,0.476,0.457,0.735,0.671l42.133,34.97c5.752,4.776,12.927,7.225,20.141,7.225 c5.347,0,10.715-1.346,15.537-4.089l108.454-61.774l8.062-1.527l21.063,65.781c1.394,4.354,5.442,7.307,10.013,7.307h219.157 c3.888,0,7.458-2.146,9.283-5.578c1.825-3.434,1.606-7.593-0.568-10.815c-1.162-1.723-29.043-42.732-78.937-89.387 c-4.241-3.966-10.894-3.743-14.86,0.498c-3.966,4.241-3.743,10.894,0.498,14.86c29.455,27.543,51.209,53.412,63.695,69.397H236.872 l-17.932-56.002l21.701-4.109c18.732-3.545,35.047-14.115,45.94-29.762c6.719-9.65,10.901-20.568,12.383-31.927 c8.132,5.609,16.219,11.524,24.177,17.702c1.918,1.489,4.188,2.21,6.441,2.21c3.136,0,6.24-1.397,8.312-4.066 c3.561-4.586,2.729-11.192-1.857-14.752c-12.543-9.739-25.402-18.862-38.283-27.182c-2.824-15.852-5.233-24.645-7.351-29.865 c9.472-15.637,46.108-66.784,124.168-75.389c54.643-6.027,78.271-39.277,88.47-66.109c10.747-28.272,8.87-54.903,8.784-56.022 C511.395,74.92,506.595,70.587,500.93,70.85z M325.676,127.072c47.829-1.282,84.097-11.295,108.114-29.81 c-9.2,21.524-24.752,36.192-46.323,43.713c-4.642,0.353-9.464,0.622-14.367,0.789c-2.305,0.076-4.606,0.195-7.021,0.36 c-0.063,0.004-0.124,0.011-0.187,0.015c-0.088,0.007-0.178,0.012-0.265,0.022c-16.497,1.143-31.178,4.191-44.231,8.518 c-0.121,0.039-0.241,0.076-0.361,0.119c-36.04,12.041-59.556,33.883-74.008,52.636c-8.245,10.697-13.719,20.608-17.05,27.574 c-12.892-2.924-31.005-2.499-46.793-1.19c2.963-6.506,7.27-15.005,13.116-24.332l9.097,4.649c1.532,0.782,3.166,1.153,4.775,1.153 c3.824,0,7.512-2.093,9.371-5.732c2.642-5.171,0.592-11.503-4.578-14.146l-6.476-3.31c4.417-5.637,9.372-11.316,14.897-16.818 l10.058,7.4c1.877,1.38,4.058,2.046,6.222,2.046c3.229,0,6.416-1.483,8.477-4.284c3.441-4.676,2.439-11.258-2.237-14.698 l-6.298-4.633c4.87-3.713,9.895-7.099,15.055-10.13l4.964,6.021c2.08,2.521,5.086,3.826,8.119,3.826 c2.354,0,4.724-0.786,6.681-2.401c4.48-3.694,5.118-10.319,1.424-14.8l-1.775-2.153c6.704-2.675,13.631-4.845,20.737-6.493 l2.072,6.013c1.501,4.356,5.577,7.09,9.94,7.09c1.137,0,2.292-0.186,3.426-0.577c5.489-1.892,8.406-7.876,6.513-13.366l-0.858-2.49 C319.143,127.366,322.401,127.161,325.676,127.072z M25.077,417.568c3.274-5.117,7.817-12.179,13.221-20.48l18.426,9.559 c-5.242,5.226-12.693,10.991-20.913,12.224C32.169,419.418,28.614,418.988,25.077,417.568z M236.729,375.06l-52.303,9.902 c-1.141,0.216-2.238,0.619-3.248,1.194l-109.972,62.64c-3.759,2.138-8.52,1.722-11.847-1.04l-12.232-10.154 c20.542-7.202,34.208-27.46,34.849-28.428c0.047-0.071,0.084-0.148,0.13-0.22c0.032-0.05,0.07-0.094,0.101-0.144 c6.452-10.643,47.287-54.227,84.599-92.882l8.335,8.08c2.042,1.98,4.681,2.964,7.316,2.964c2.745,0,5.489-1.069,7.551-3.196 c4.041-4.17,3.937-10.826-0.232-14.867l-8.334-8.078c3.036-3.118,6.013-6.167,8.901-9.117c6.555,5.185,14.704,13.448,15.586,21.842 c0.216,2.056,0.873,8.314-8.722,16.986c-4.307,3.893-4.644,10.542-0.75,14.849c3.894,4.309,10.542,4.643,14.85,0.751 c14.482-13.09,16.441-26.139,15.535-34.78c-2.558-24.369-29.468-40.645-32.529-42.422c-4.151-2.409-9.409-1.7-12.774,1.723 c-9.667,9.833-87.315,88.992-111.458,119.225l-20.191-10.476c14.364-21.739,33.073-49.446,50.319-73.092 c30.6-41.956,39.882-48.196,41.691-49.091c6.35-1.644,15.923-3.351,26.334-4.688c34.893-4.471,57.078-2.518,61.154,0.206 l41.243,32.565c0.869,1.836,3.471,8.706,7.186,30.732C282.437,343.422,264.006,369.897,236.729,375.06z M412.264,181.79 c-53.882,5.938-89.876,30.337-110.584,49.759c-12.415,11.644-20.952,22.891-26.197,30.803l-27.002-21.32 c1.952-4.193,5.024-10.072,9.479-16.774l8.187,5.492c1.798,1.206,3.834,1.784,5.848,1.784c3.386,0,6.712-1.634,8.74-4.657 c3.235-4.821,1.949-11.352-2.872-14.587l-6.938-4.655c4.495-4.931,9.713-9.924,15.735-14.703l8.591,11.34 c2.068,2.729,5.209,4.165,8.388,4.165c2.212,0,4.442-0.696,6.341-2.134c4.628-3.506,5.539-10.1,2.031-14.729l-7.863-10.38 c4.691-2.636,9.726-5.09,15.125-7.294l5.768,12.182c1.797,3.794,5.572,6.017,9.509,6.017c1.508,0,3.039-0.326,4.491-1.014 c5.248-2.484,7.488-8.754,5.003-14.001l-4.598-9.709c5.666-1.387,11.644-2.507,17.955-3.302l0.747,7.221 c0.56,5.408,5.125,9.432,10.445,9.432c0.362,0,0.728-0.019,1.095-0.058c5.776-0.597,9.972-5.765,9.375-11.541l-0.677-6.533 c4.087-0.188,8.105-0.437,11.992-0.749c0.047-0.004,0.096-0.007,0.143-0.012c39.779-3.238,70.46-13.1,91.522-29.374 C469.818,161.439,446.36,178.028,412.264,181.79z"/> <path d="M356.128,351.452c-4.425-3.758-11.06-3.217-14.819,1.21c-3.759,4.426-3.216,11.061,1.21,14.819l1.743,1.487 c1.983,1.697,4.414,2.527,6.834,2.527c2.965,0,5.912-1.247,7.99-3.674c3.777-4.41,3.263-11.048-1.147-14.825L356.128,351.452z"/> </g>
</svg>