<svg width="192" height="192" viewBox="0 0 192 192" fill="none" xmlns="http://www.w3.org/2000/svg">
<g clip-path="url(#clip0_240_2)">
<path d="M158.682 310.834C156.677 305.796 146.655 285.421 143.017 278.902C139.156 272.012 128.168 254.823 125.867 252.082C125.199 251.267 122.6 248.081 120.076 245.044C117.552 242.006 107.083 231.189 96.8379 220.965C86.5182 210.815 75.7531 199.628 72.8576 196.146C59.3455 179.773 52.8864 167.4 49.5455 151.027C47.6894 141.914 47.6895 134.061 49.4713 125.318C51.1046 117.539 52.4409 114.575 56.0788 110.797C58.2319 108.574 59.2712 107.982 61.4985 107.982C63.8743 107.982 64.6909 108.5 68.9228 113.316C71.5212 116.28 74.3425 119.317 75.0849 120.132C77.1637 122.207 86.2213 126.8 91.344 128.43C94.4622 129.393 95.5758 130.06 95.5758 131.097C95.5758 132.357 95.1304 132.431 91.8637 131.986L88.2258 131.542L88.597 136.95C89.1909 144.211 92.9031 155.027 97.4319 162.658C101.961 170.289 125.05 200.888 130.841 206.963C131.212 207.407 132.252 208.667 133.068 209.852C133.885 210.963 136.261 214.075 138.265 216.816C140.344 219.484 142.72 222.817 143.462 224.151C144.279 225.411 145.17 226.522 145.467 226.522C145.764 226.522 146.061 226.966 146.061 227.559C146.061 228.152 146.358 228.744 146.655 228.893C147.026 229.041 148.808 231.634 150.664 234.671C152.52 237.709 155.564 242.525 157.42 245.34C162.171 252.452 165.141 263.343 166.849 279.865C167.665 287.866 167.814 304.61 167.146 309.796L166.626 313.204H163.136C159.87 313.204 159.573 313.056 158.682 310.834Z" fill="#EACDBC"/>
<path d="M153.114 149.693C145.987 148.211 144.353 147.322 143.314 144.285C142.2 140.951 142.126 132.653 143.165 129.393C145.319 123.022 151.332 120.058 160.835 120.725C165.29 121.095 166.626 121.614 175.609 126.8C181.029 129.912 185.781 132.431 186.152 132.431C186.597 132.431 186.894 132.949 186.894 133.542C186.894 134.135 186.449 134.653 185.855 134.653C184.593 134.653 183.256 136.209 182.959 138.061C182.662 139.839 176.797 145.766 175.387 145.766C174.793 145.766 174.273 146.063 174.273 146.359C174.273 147.174 169.819 149.1 165.735 150.212C161.875 151.175 159.499 151.101 153.114 149.693Z" fill="#EACDBC"/>
<path d="M86.6671 92.6456C85.6277 92.4974 83.0293 91.8306 80.9505 91.2379L77.0156 90.1266V87.015C77.0156 83.9774 77.1641 83.7551 80.9505 81.4584C87.1868 77.754 90.899 76.6427 97.8035 76.5686C103.891 76.4945 108.94 77.6799 108.94 79.1617C108.94 79.5321 109.385 79.8285 109.905 79.8285C111.464 79.8285 114.137 83.0883 114.137 85.0146C114.137 88.4967 112.429 91.6084 110.202 92.4233C108.123 93.0901 90.602 93.3124 86.6671 92.6456Z" fill="#EACDBC"/>
<path d="M45.0913 73.3087C45.0913 72.8642 43.9035 72.716 42.1216 72.9383C39.1519 73.3828 39.152 73.3087 39.8201 71.4565C40.4883 69.6784 40.1171 69.1598 35.2913 64.4923C25.1201 54.7127 19.1065 44.1182 18.5868 35.0054C18.0671 25.9667 21.0368 23.4478 28.9065 26.2631L33.361 27.893L30.3171 24.6332C28.6095 22.781 27.2732 21.1511 27.2732 20.9288C27.2732 20.7065 28.3125 20.5583 29.5004 20.5583C31.3565 20.5583 31.7277 20.8547 31.7277 22.4846C31.7277 23.8923 32.2474 24.5591 33.955 25.0777C35.2913 25.5963 36.1822 26.4113 36.1822 27.1521C36.1822 28.4857 41.3792 33.1532 42.7898 33.1532C43.2353 33.1532 43.6065 33.6719 43.6065 34.2646C43.6065 34.9313 44.1262 35.5981 44.7201 35.8204C45.3141 36.1167 45.8338 36.9317 45.8338 37.6726C45.8338 38.4876 46.4277 39.3766 47.1701 39.5989C47.8383 39.8952 48.8777 40.4879 49.3232 41.0065C51.105 42.7105 54.0004 48.9339 54.0004 50.9343C54.0004 52.3419 54.4459 53.0828 55.3368 53.3051C57.0444 53.7496 57.7125 57.0835 57.7125 65.4554C57.7125 69.3821 57.4156 71.7529 56.8216 72.2715C55.4853 73.3087 45.0913 74.2719 45.0913 73.3087Z" fill="#EACDBC"/>
<path d="M146.655 148.137C145.69 147.989 145.318 147.174 145.318 145.544V143.247L146.877 144.803C148.659 146.581 148.511 148.508 146.655 148.137Z" fill="#EECDAB"/>
<path d="M75.0849 124.281C74.194 123.985 73.3031 123.17 73.0804 122.503C72.7834 121.836 72.041 121.318 71.3728 121.318C70.6304 121.318 70.3334 121.095 70.5561 120.799C70.8531 120.577 70.7046 119.91 70.2592 119.317C69.591 118.576 69.8879 118.354 71.744 118.354C73.2289 118.354 74.0455 118.724 74.0455 119.391C74.0455 119.984 74.7879 120.577 75.7531 120.725C76.941 120.873 77.4606 121.54 77.6091 123.022C77.9061 125.17 77.5349 125.318 75.0849 124.281Z" fill="#EECDAB"/>
<path d="M105.227 91.7566C105.227 91.0898 106.935 90.1267 108.791 89.7563C110.202 89.4599 110.499 89.0895 110.647 87.3114C110.721 86.4964 111.093 85.7555 111.464 85.7555C111.835 85.7555 111.39 84.9406 110.424 83.9033C109.459 82.8661 108.42 82.0512 108.049 82.0512C107.677 82.0512 106.712 81.3844 105.821 80.5694L104.188 79.0876H107.306C110.276 79.0876 110.424 79.2358 110.424 81.2362C110.424 83.1625 110.721 83.4588 112.874 83.6811C115.176 83.9033 115.25 84.0515 115.473 87.3114C115.696 90.6453 115.547 90.7935 113.32 91.6084C110.499 92.5716 105.227 92.7198 105.227 91.7566Z" fill="#EECDAB"/>
<path d="M76.2725 87.6076V84.2737H79.0937C81.5437 84.3478 81.6921 84.4219 80.5785 85.3109C78.7225 86.7186 78.9452 87.904 81.0982 88.4226C84.3649 89.2376 83.3255 90.9416 79.6134 90.9416H76.2725V87.6076Z" fill="#EECDAB"/>
<path d="M42.8636 73.6052C40.2652 73.0125 39.5227 72.4939 39.7454 71.4566C39.8939 70.7899 40.2652 70.3453 40.6364 70.5676C40.9333 70.7899 41.0818 70.2712 40.8591 69.4563C40.6364 68.6413 40.7848 67.9745 41.2303 67.9745C42.2697 67.9745 46.8727 70.4194 47.1697 71.1603C47.3182 71.4566 47.8379 71.4566 48.2833 71.1603C48.803 70.8639 50.2136 70.5676 51.4015 70.5676C52.6636 70.4935 54.0742 70.2712 54.5939 69.9008C55.6333 69.234 55.7818 65.7519 54.7424 65.7519C54.3712 65.7519 54 64.7888 54 63.5293C54 62.3439 54.3712 61.3066 54.7424 61.3066C55.1879 61.3066 55.4849 61.0103 55.4849 60.5658C55.4849 60.1953 54.9652 59.8249 54.3712 59.8249C53.7773 59.8249 53.2576 59.5285 53.2576 59.084C53.2576 58.7136 53.6288 58.3431 54 58.3431C55.3364 58.3431 54.7424 55.9723 53.3318 55.6019C51.4757 55.1574 49.8424 51.6752 51.1788 50.8603C51.847 50.4158 51.7727 50.1194 50.8076 49.749C50.1394 49.5267 49.7682 49.0081 49.9909 48.6377C50.2136 48.2672 49.9909 47.9709 49.5455 47.9709C49.1 47.9709 48.8773 47.6745 49.1742 47.23C49.7682 46.2669 47.9121 43.5256 46.7243 43.5256C46.2046 43.5256 45.9818 43.2293 46.2045 42.7847C46.4273 42.4143 46.1303 42.0439 45.5363 42.0439C44.9424 42.0439 44.0515 41.3771 43.6061 40.5621C43.1606 39.7472 43.0864 39.0804 43.3833 39.0804C43.6803 39.0804 43.1606 38.5617 42.2697 37.895C41.3788 37.3023 40.7849 36.4132 41.0076 36.0428C41.3045 35.6723 41.0076 35.376 40.4879 35.376C39.1515 35.3019 33.8803 30.7085 33.7318 29.449C33.5833 28.8563 33.2864 27.8931 32.9894 27.4486C32.544 26.7818 32.9894 26.4855 34.5485 26.4855C36.3303 26.4855 37.8894 27.6709 43.1606 33.3015C48.5803 39.0063 49.5455 40.4139 49.5455 42.5625C49.5455 44.4888 49.8424 45.0074 51.0303 45.0074C52.7379 45.0074 56.2273 51.2307 56.2273 54.1942C56.2273 55.1574 56.5985 56.1205 57.1182 56.2687C57.6379 56.4909 58.0833 59.0099 58.3061 63.0107C58.603 69.1599 58.603 69.4563 57.0439 69.4563C55.7818 69.4563 55.4849 69.9008 55.4849 71.6048C55.4849 72.8643 55.0394 73.9015 54.297 74.1979C52.5152 74.8647 46.65 74.5683 42.8636 73.6052Z" fill="#EECDAB"/>
<path d="M21.4075 2.62918C18.512 0.184288 17.6211 -1.0752 17.6211 -2.70513C17.6211 -4.48323 17.7696 -4.63141 18.7347 -3.89053C19.3287 -3.44601 20.1453 -3.22374 20.5908 -3.52009C21.0362 -3.81644 22.0014 -3.59418 22.6696 -3.07556C23.3378 -2.48286 23.115 -3.00148 22.1499 -4.1128L20.3681 -6.11316H22.3726C25.4165 -6.11316 30.9847 -0.11206 30.9847 3.22188C30.9847 5.66677 30.9105 5.74086 28.0893 5.74086C25.7878 5.74086 24.4514 5.14816 21.4075 2.62918Z" fill="#EECDAB"/>
<path d="M-322.409 817.148C-322.409 808.332 -319.439 783.586 -314.688 753.285C-313.277 744.246 -309.194 714.611 -306.076 690.31C-301.77 657.341 -298.429 638.523 -295.682 632.3C-293.752 628.003 -289 623.705 -278.161 616.445C-263.238 606.443 -257.447 600.146 -254.18 590.44C-252.027 584.069 -252.102 581.105 -255.294 558.434C-255.888 554.137 -256.853 546.654 -257.447 541.765C-258.041 536.875 -258.709 531.911 -258.932 530.651C-260.12 523.835 -261.53 500.72 -261.53 488.421C-261.456 457.157 -256.705 432.189 -246.608 411C-242.153 401.665 -239.926 398.035 -232.799 388.7C-223.073 375.882 -209.709 364.473 -198.276 359.213C-180.383 350.915 -161.377 348.026 -125.221 348.026C-104.656 348.026 -92.7031 348.47 -61.4471 350.248C-54.4683 350.693 -38.1349 351.211 -25.0683 351.434C8.63779 352.1 24.8969 350.693 40.2651 345.803C66.1014 337.505 75.6045 319.65 70.3332 289.2C67.6605 273.938 63.3545 261.195 48.0605 222.817C35.3651 190.96 30.3166 176.068 26.456 158.361C24.8969 151.397 24.7484 148.73 24.7484 133.542C24.8226 118.058 25.0454 115.613 26.8272 107.241C27.8666 102.129 29.6484 95.2386 30.6878 92.0529C33.212 84.1996 38.4832 73.0864 40.6363 71.0861C42.2696 69.6043 42.5666 69.5302 44.0514 70.5675C44.9423 71.1602 47.0211 71.827 48.6545 72.1233C52.5893 72.716 55.4105 70.3452 56.0045 65.974C56.8954 59.3062 50.8075 46.1926 42.4923 37.0799C40.2651 34.5609 38.409 32.3383 38.409 32.116C38.409 31.4492 42.7151 31.5974 44.1999 32.3383C44.8681 32.7087 46.6499 33.4496 48.0605 33.9682C49.5454 34.5609 53.1832 37.5985 56.6726 41.1547C62.2408 46.9335 62.9832 47.4521 67.809 48.7857C79.3166 51.9715 82.806 53.3791 83.9939 55.4536C84.8848 57.0094 85.9242 57.528 88.6711 57.8985C96.2439 59.0098 102.183 60.862 110.127 64.7146L118.442 68.6412L122.674 77.0131C125.05 81.6065 128.02 87.089 129.356 89.0894C135.221 98.3503 146.357 108.723 158.904 116.576C164.176 119.984 165.364 121.021 165.364 122.503C165.364 123.54 165.067 124.207 164.77 123.985C164.398 123.762 162.617 123.392 160.761 123.17C153.485 122.207 147.026 125.911 145.318 132.134C144.204 135.913 144.798 141.469 146.432 143.988C147.842 146.211 147.842 147.989 146.432 147.989C144.65 147.989 137.523 144.136 129.356 138.802C125.273 136.135 121.486 133.912 120.818 133.912C120.224 133.912 117.551 134.283 114.953 134.727C109.014 135.616 101.738 134.653 91.8636 131.542C80.7272 128.059 76.7923 125.615 68.6257 117.317L61.3499 109.982L58.4545 112.797C54.7423 116.428 52.812 121.021 51.2529 130.134C50.1393 136.505 50.0651 138.358 50.8817 143.84C53.4802 161.695 60.756 176.735 75.0848 193.923C77.9802 197.405 89.1908 209.037 100.104 219.854C124.53 244.155 131.361 252.675 143.833 274.234C147.917 281.347 157.494 300.535 161.28 309.352C162.023 311.056 162.988 312.389 163.433 312.241C164.621 311.871 165.215 306.685 165.289 297.572C165.438 279.495 161.577 258.009 156.306 247.785C155.489 246.155 155.044 244.747 155.192 244.599C155.935 243.858 158.014 245.34 158.385 246.97C158.607 247.933 159.053 248.748 159.35 248.748C159.573 248.748 160.464 250.008 161.28 251.489C162.097 253.045 164.547 257.49 166.7 261.343C176.648 278.902 182.291 294.46 184.741 310.982C187.339 328.244 186.151 353.582 181.697 376.994C181.029 380.698 181.177 382.18 183.182 390.552C187.191 407.37 188.453 416.038 188.898 428.411C189.27 438.783 189.121 441.302 187.636 448.414C186.745 452.934 185.186 458.935 184.147 461.75C182.439 466.492 175.089 481.828 172.714 485.68C171.451 487.607 169.818 487.829 169.744 486.051C169.521 481.309 166.477 477.308 162.32 476.197C148.511 472.493 122.674 495.978 117.551 516.871C116.512 521.168 116.512 522.205 117.551 527.021C119.779 537.838 125.57 551.692 132.251 561.99C135.741 567.473 142.868 575.697 146.209 578.142C147.323 579.031 149.55 581.327 151.035 583.328C154.895 588.514 164.101 599.257 166.106 601.035C168.63 603.257 179.47 615.926 183.256 621.038C185.038 623.483 187.191 626.965 187.933 628.669C189.344 631.781 189.344 632.003 188.007 637.56C184.815 651.192 172.342 679.79 150.218 724.39L143.759 737.282L143.982 773.436L144.204 809.591H142.571C141.606 809.591 140.864 809.295 140.864 808.998C140.864 808.628 139.453 806.183 137.82 803.59L134.776 798.923L133.439 800.553C132.697 801.442 131.435 802.182 130.618 802.182C128.762 802.182 128.465 800.627 127.797 787.143C127.351 778.697 127.129 776.993 126.238 777.289C125.644 777.585 124.976 777.734 124.827 777.734C124.679 777.734 124.53 778.252 124.53 778.845C124.53 779.438 124.233 779.956 123.788 779.956C122.377 779.956 123.045 774.177 125.124 769.139C126.312 766.324 129.207 759.953 131.583 754.989C135.073 747.654 135.667 745.728 134.998 744.839C133.736 743.357 129.876 744.765 128.836 747.061C128.317 748.173 127.351 748.839 126.386 748.839C124.382 748.839 124.159 747.358 122.971 730.688C122.6 724.613 121.932 716.389 121.486 712.536C121.115 708.684 120.447 700.831 120.001 695.126C119.63 689.421 118.962 680.605 118.517 675.493C118.145 670.381 117.626 663.565 117.329 660.231L116.883 654.23L120.967 652.007C129.282 647.265 135.592 637.93 138.711 625.632C139.527 622.298 140.418 618.964 140.567 618.297C141.012 616.667 132.994 609.999 106.638 590.292C76.2727 567.547 70.4818 563.028 65.0621 557.693C60.5333 553.174 60.0878 552.433 57.7863 545.469C56.3014 541.024 55.1136 535.467 54.6681 531.318C53.6287 520.205 51.9211 509.685 50.7332 507.388C50.065 506.128 48.8029 505.091 47.6893 504.943C46.6499 504.721 40.562 505.313 34.0287 506.203C6.03931 510.203 -20.6137 510.944 -43.2577 508.277C-87.9516 502.943 -110.447 502.869 -126.038 507.758C-131.829 509.611 -140.812 514.278 -145.564 517.908C-158.333 527.836 -167.539 541.246 -172.439 557.323C-173.627 561.398 -175.409 566.065 -176.3 567.695C-181.72 577.771 -197.385 598.145 -206.962 607.703C-216.094 616.889 -216.539 617.26 -232.205 630.299C-238.293 635.411 -248.686 644.894 -255.22 651.414C-277.493 673.492 -286.476 688.68 -291.97 713.203C-296.35 733.059 -299.246 774.177 -298.355 805.368C-297.835 823.668 -297.835 823.742 -305.779 815.518C-310.605 810.48 -310.827 810.406 -312.238 811.592C-312.98 812.332 -314.985 815.666 -316.618 819C-318.771 823.52 -319.959 825.15 -320.999 825.15C-322.335 825.15 -322.409 824.557 -322.409 817.148ZM148.956 690.162C156.38 669.343 160.835 655.489 162.023 649.34C163.211 643.19 163.211 642.672 162.023 639.486C161.132 637.189 158.459 633.707 153.633 628.669C149.698 624.669 145.986 621.038 145.392 620.668C144.353 620.149 144.204 623.928 144.204 659.638C144.204 686.532 144.427 699.201 144.947 699.201C145.392 699.201 147.174 695.126 148.956 690.162ZM109.533 96.424C111.612 95.535 113.394 94.4237 113.394 94.1273C113.394 93.7569 112.874 92.7197 112.132 91.7565C111.018 90.1266 111.018 89.9043 112.132 89.0894C112.874 88.5707 113.394 87.904 113.394 87.4594C113.394 86.3481 108.048 81.6065 105.227 80.1248C101.664 78.3467 94.8333 78.4208 89.7848 80.4211C81.6923 83.5328 75.6787 88.7189 80.059 88.7189C80.9499 88.7189 83.0287 89.8302 84.7363 91.1638C89.2651 94.8682 91.2696 96.0536 95.5757 97.5353C100.253 99.1653 104.039 98.8689 109.533 96.424Z" fill="#F37A1D"/>
<path d="M82.9546 82.866C82.9546 82.1251 85.1819 81.0879 85.7016 81.6065C85.9243 81.7547 85.3303 82.2733 84.5137 82.7919C83.6228 83.2364 82.9546 83.3105 82.9546 82.866Z" fill="#BB7F49"/>
<path d="M77.3864 54.7127C74.9364 54.0459 72.4864 53.231 72.0409 52.9346C71.5212 52.6383 68.7 51.7492 65.8046 50.9343C60.6819 49.6007 60.1621 49.3043 54.4455 43.3773C51.1045 39.9693 47.4667 36.7835 46.2046 36.339C45.0167 35.8945 43.3091 35.2277 42.4924 34.9313C41.6758 34.635 40.7849 34.3386 40.4879 34.3386C40.2652 34.2646 33.5833 27.7448 25.6394 19.8175C11.1621 5.22221 -1.31059 -5.52049 -17.6439 -17.5968C-22.5439 -21.2271 -28.1863 -25.376 -30.2651 -26.9318C-40.2879 -34.2665 -71.8409 -54.4924 -85.7242 -62.4939C-88.9167 -64.272 -91.4409 -66.1982 -91.5151 -66.6428C-91.5151 -67.7541 -89.956 -67.9022 -88.8424 -67.0132C-88.4712 -66.6428 -83.1257 -64.272 -77.0379 -61.6789C-50.3848 -50.4176 -19.797 -33.2293 1.28789 -17.6709C3.51517 -15.9668 6.18789 -14.1146 7.22729 -13.4479C8.26668 -12.7811 13.1667 -8.70626 18.2152 -4.3351C23.2636 -0.0380145 27.7182 3.51819 28.1637 3.51819C29.2773 3.51819 27.5697 1.51783 17.6955 -8.48399L9.08335 -17.2263H11.9046C14.1318 -17.2263 14.6515 -16.93 14.6515 -15.7446C14.6515 -14.7814 15.1712 -14.2628 16.1364 -14.2628C17.3243 -14.2628 17.6212 -13.7442 17.6212 -11.7439C17.6212 -9.29896 17.7697 -9.15079 20.4424 -8.92852C22.9667 -8.70626 23.1894 -8.484 23.4121 -6.33546C23.5606 -4.70553 24.5258 -3.14969 26.6046 -1.37159C28.1637 0.110161 29.797 1.29557 30.1682 1.29557C31.0591 1.29557 53.1834 23.2996 59.7167 30.7083C62.6121 33.9682 67.4379 39.8952 70.3333 43.8218C75.0106 50.0452 76.1243 51.0084 78.797 51.7492C81.6182 52.4901 83.697 54.0459 83.697 55.5277C83.697 56.3427 82.5091 56.1945 77.3864 54.7127Z" fill="#BB7F49"/>
<path d="M80.356 55.0091C79.9847 54.8609 78.2029 54.3423 76.5696 53.8978C73.8226 53.231 72.7832 52.2679 68.106 46.0445C60.6075 36.0427 53.7772 28.4117 42.0469 16.854C36.4787 11.3715 29.4256 4.03686 26.3817 0.554746C10.5681 -17.6708 -26.9986 -50.7139 -57.3637 -73.1624C-64.2683 -78.2004 -66.0501 -79.9785 -66.1986 -81.8307C-66.3471 -83.0161 -40.288 -67.8281 -26.1819 -58.4931C9.60292 -34.8591 43.2347 -3.29781 65.9529 27.9672C71.8181 35.9686 78.2029 45.6741 81.7666 51.8974C83.6226 55.0091 83.6969 55.3796 82.4347 55.3055C81.6923 55.3055 80.8014 55.1573 80.356 55.0091Z" fill="#A86D45"/>
<path d="M174.273 129.615C153.336 117.465 141.235 108.574 133.514 99.6839C128.465 93.831 125.718 89.608 120.967 80.1989C118.962 76.1241 116.438 71.6048 115.473 70.1971C112.355 65.6037 112.355 65.4555 115.621 67.3077C121.264 70.4934 129.653 81.3102 129.727 85.4591C129.727 85.9777 130.841 87.3854 132.177 88.719C134.553 91.0157 150.961 102.129 160.167 107.611C179.47 119.095 189.121 126.948 189.121 131.171C189.121 132.727 186.597 134.653 184.592 134.579C183.627 134.579 178.95 132.282 174.273 129.615Z" fill="black"/>
<path d="M93.4227 99.8321C88.5969 98.054 85.0333 95.8314 81.0243 91.9788C77.4606 88.4967 78.2773 88.1263 86.2212 89.7562C93.497 91.312 104.559 91.312 109.682 89.7562C113.468 88.6449 113.765 88.6449 114.656 89.9785C115.992 91.7566 116.661 94.3496 116.067 95.7573C115.324 97.7577 108.197 100.425 102.629 100.943C98.4712 101.24 96.6151 101.018 93.4227 99.8321Z" fill="black"/>
</g>
<defs>
<clipPath id="clip0_240_2">
<rect width="192" height="192" fill="white"/>
</clipPath>
</defs>
</svg>
