<svg width="377" height="702" viewBox="0 0 377 702" fill="none" xmlns="http://www.w3.org/2000/svg">
<g clip-path="url(#clip0_240_2)">
<path d="M326.9 669.25C326.6 668.55 326.15 668 325.9 668C325.65 668 325.6 667.8 325.75 667.5C325.9 667.25 325.85 667 325.6 667C325.3 667 324.95 666.45 324.8 665.75C324.6 665.05 324.25 664.5 323.95 664.5C323.65 664.5 323.6 664.3 323.75 664C323.9 663.75 323.8 663.5 323.5 663.5C323.2 663.5 323.1 663.3 323.25 663C323.4 662.75 323.3 662.5 323 662.5C322.7 662.5 322.6 662.3 322.75 662C322.9 661.75 322.85 661.5 322.65 661.5C322.4 661.5 322.2 661 322.15 660.4C322.1 659.85 321.85 659.2 321.65 659.05C321.3 658.8 321.05 658.15 320.85 656.75C320.8 656.5 320.3 656 319.75 655.65C318.55 654.95 319.05 654.7 322.4 654.35C323.6 654.2 325.4 653.5 326.45 652.8C329.05 651 331.1 651.1 329.4 652.95C328.95 653.45 328.95 653.55 329.35 653.3C329.7 653.1 330.5 653.75 331.35 654.85C332.1 655.9 333.05 657.05 333.4 657.45C334.25 658.35 338.1 666 337.7 666C337.5 666 337.65 666.3 337.95 666.7C338.4 667.25 337.95 667.4 335.45 667.65C333.1 667.85 332.1 668.2 331.05 669.2C329.3 670.85 327.65 670.9 326.9 669.25Z" fill="#EACDBC"/>
<path d="M23.75 667.95C23.2 667.6 22.6 667.1 22.4 666.8C22.15 666.45 22 666.6 22 667.15C22 667.6 21.8 668 21.5 668C21.25 668 21 667.65 21 667.25C21 666.85 20.8 666.5 20.5 666.5C20.25 666.5 20.15 666.15 20.3 665.75C20.5 665.35 20.4 665 20.1 665C19.85 665 19.6 664.7 19.65 664.4C19.75 661.8 19.45 660.5 18.75 660.5C18.35 660.5 18 660.3 18 660C18 659.7 19.3 659.5 20.95 659.5C23.35 659.5 23.95 659.65 24.15 660.4C24.35 661.05 24.4 660.95 24.45 660.15C24.5 659.15 24.75 659 26.4 659.05C27.9 659.05 28.1 659.15 27.45 659.6C26.75 660.1 26.8 660.3 27.95 661.45C28.65 662.15 29.3 663.1 29.4 663.5C29.5 663.9 29.75 664.35 29.95 664.5C30.4 664.85 31.6 667.6 31.35 667.85C30.8 668.4 24.65 668.5 23.75 667.95Z" fill="#EACDBC"/>
<path d="M262.1 657.7C260.05 655.65 258.2 654 257.95 654C256.95 654 257.6 652.35 259 651.15C260.8 649.65 261.8 647.9 262.25 645.35C262.75 642.8 263.75 642.95 264.25 645.55C264.4 646.15 265 647 265.6 647.4C267.4 648.65 271.5 652.6 272.55 654.05L273.5 655.4L272.1 656.1C268.75 657.85 267.45 658.85 266.85 660.15C266.55 660.9 266.15 661.45 266 661.45C265.85 661.4 264.1 659.7 262.1 657.7Z" fill="#EACDBC"/>
<path d="M296.75 629.35C294.85 627.35 292.25 625.5 291.3 625.5C290.65 625.5 290.6 625.25 291 624.2C291.3 623.5 291.4 622.7 291.2 622.45C291.05 622.2 291.2 622 291.5 622C291.8 622 291.9 621.8 291.75 621.5C291.6 621.25 291.7 621 292 621C292.3 621 292.4 620.8 292.25 620.5C292.1 620.25 292.2 620 292.5 620C292.8 620 292.9 619.8 292.75 619.5C292.6 619.25 292.7 619 293 619C293.3 619 293.4 618.8 293.25 618.5C293.1 618.25 293.2 618 293.55 618C293.9 618 294.05 617.85 293.9 617.7C293.7 617.55 294 617 294.55 616.45C295.1 615.9 295.4 615.25 295.25 615C295.1 614.8 295.55 614.15 296.25 613.6C297 613 297.3 612.45 297 612.25C296.05 611.7 296.45 610 297.5 610C298.05 610 298.5 610.3 298.5 610.65C298.5 611.5 301.8 613.55 303.8 613.85C305.45 614.15 306.25 615.5 304.75 615.5C304.05 615.5 303.7 617.15 303.95 619.65C304 620.1 303.85 620.5 303.55 620.5C303.25 620.5 303.15 620.85 303.3 621.25C303.5 621.65 303.35 622 303.05 622C302.75 622 302.65 622.35 302.8 622.75C303 623.15 302.85 623.5 302.55 623.5C302.25 623.5 302.15 623.85 302.3 624.25C302.5 624.65 302.35 625 302 625C301.7 625 301.55 625.2 301.75 625.5C302.15 626.15 299.6 631 298.85 631C298.55 630.95 297.6 630.25 296.75 629.35Z" fill="#EACDBC"/>
<path d="M308.3 514.95C308.45 514.65 308.4 514.25 308.1 514.05C307.45 513.65 305.05 483.95 305.2 478C305.25 475.45 305.15 475.15 303.5 473.65L301.75 472.05L303.65 472C304.95 472 305.5 472.2 305.5 472.75C305.5 473.15 305.85 473.5 306.25 473.5C307.15 473.5 316.3 480.35 318.85 482.85C319.75 483.75 320.65 484.5 320.85 484.5C321.05 484.5 322.3 485.4 323.65 486.55C325.55 488.2 326 488.9 326 490.15C326 492.8 323.65 501.15 321.9 504.8C320.05 508.7 315.8 513.5 314.2 513.5C313.65 513.5 312.25 513.95 311.1 514.5C308.8 515.6 307.75 515.8 308.3 514.95Z" fill="#EACDBC"/>
<path d="M174 507.75C173.65 507.3 173.3 505.55 173.2 503.85C173.15 502.15 173 500.4 172.85 500C172.7 499.6 172.45 496.3 172.25 492.7C171.7 480.75 170.6 477.8 163.9 470C161.7 467.4 159.5 464.7 159.05 464C158.6 463.3 157.9 462.35 157.45 461.85C157 461.35 156.2 460.1 155.7 459.1C155.15 458.1 154.6 457.15 154.35 457.1C154.15 457 154.1 456.7 154.3 456.45C154.45 456.2 154.3 456 153.95 456C153.6 456 153.45 455.85 153.65 455.7C153.8 455.55 152.65 452.9 151.15 449.85C149.25 446.05 147.5 443.4 145.8 441.6C143.55 439.35 142.95 438.95 140.9 438.75C139.5 438.65 138.5 438.75 138.5 439C138.5 439.3 138.05 439.5 137.55 439.5C136.25 439.5 132.45 441.25 132.85 441.65C133 441.85 132.85 442 132.45 442C132 442 131.25 442.4 130.7 442.9C129.7 443.75 128.55 444.5 125.8 445.95C125 446.4 123.95 447.15 123.4 447.65C122.9 448.1 122.15 448.5 121.75 448.5C121.35 448.5 121 448.75 121 449C121 449.3 120.65 449.5 120.25 449.5C119.85 449.5 119.5 449.7 119.5 450C119.5 450.25 118.95 450.6 118.25 450.8C117.55 450.95 117 451.3 117 451.55C117 451.8 116.65 452 116.25 452C115.85 452 115.5 452.2 115.5 452.45C115.5 452.7 114.8 453.15 114 453.5C113.15 453.85 112.25 454.55 111.95 455.05C111.2 456.45 110.5 456.2 110.5 454.55C110.5 452.25 113.35 443.6 115.55 439.3C120.35 429.8 128.15 421.85 136.85 417.55C141.75 415.1 144.55 414.25 150.5 413.2C156.8 412.1 172.95 412.1 183.75 413.2C192.45 414.1 197.2 414.6 209 415.75C219.6 416.85 234.6 416.1 251.5 413.7C261.85 412.2 264.15 412.35 265.3 414.55C266.85 417.6 268.8 436 267.55 436C267.3 436 266.8 435.55 266.45 434.95C265.75 433.95 265.6 433.95 262.5 434.55C260.7 434.9 259.15 435.35 259 435.5C258.85 435.65 258.1 435.75 257.25 435.8C256.45 435.85 252.4 436.25 248.25 436.75C240.4 437.7 222 438.1 216 437.5C214.2 437.3 212.55 437.35 212.25 437.6C212 437.8 211.85 438.8 211.95 439.75C212.05 441.25 211.9 441.5 211.05 441.5C210.35 441.5 210 441.2 210 440.5C210 439.4 209 439.2 207.55 440C206.2 440.7 205.95 441.65 205.45 447.25C204.55 457.85 204.05 461.9 203.25 465.5C200.05 480.3 199.65 481.95 199.05 482.5C198.85 482.65 198.45 483.65 198.05 484.75C197.65 485.85 196.95 487.3 196.5 488C196 488.7 195.45 489.8 195.25 490.5C194.7 492.25 192.6 495.5 192 495.5C191.7 495.5 191.5 495.85 191.5 496.3C191.5 497.45 189 500.85 185.65 504.25C183.05 506.95 182.4 507.3 179.7 507.9C175.75 508.7 174.75 508.65 174 507.75Z" fill="#EACDBC"/>
<path d="M328.65 467.25C328.4 466.85 327.55 466 326.7 465.4C324.3 463.6 318.65 457 317.4 454.5C316.75 453.25 316.1 452.2 315.9 452.1C315.15 451.75 311 442.95 309.3 437.95C306.65 430.15 306.1 426.05 307.2 421.45C309.95 409.9 320.85 397.6 331.45 394C334.8 392.9 337.75 392.75 340.65 393.55C343.2 394.25 345.5 397.35 345.5 400.15C345.5 402.3 343.05 407.7 341.15 409.8C340.55 410.45 340.15 411 340.3 411C340.45 411 339.9 411.85 339.05 412.95C337.1 415.4 334.5 420.3 334.5 421.55C334.5 422.05 334.35 422.5 334.15 422.5C333.7 422.5 333.7 422.4 333.35 436.5C333.2 442.15 333 447.65 332.85 448.75C332.7 449.85 332.45 452 332.25 453.5C331.9 457.1 331.7 458.3 331.1 460.95C330.8 462.2 330.65 463.35 330.8 463.55C330.9 463.75 330.7 464 330.4 464.15C329.9 464.3 329.95 464.75 330.65 465.9C331.1 466.7 331.5 467.55 331.5 467.7C331.5 468.35 329.05 467.95 328.65 467.25Z" fill="#EACDBC"/>
<path d="M336.5 283.4C335.15 280 328.4 266.25 325.95 261.85C323.35 257.2 315.95 245.6 314.4 243.75C313.95 243.2 312.2 241.05 310.5 239C308.8 236.95 301.75 229.65 294.85 222.75C287.9 215.9 280.65 208.35 278.7 206C269.6 194.95 265.25 186.6 263 175.55C261.75 169.4 261.75 164.1 262.95 158.2C264.05 152.95 264.95 150.95 267.4 148.4C268.85 146.9 269.55 146.5 271.05 146.5C272.65 146.5 273.2 146.85 276.05 150.1C277.8 152.1 279.7 154.15 280.2 154.7C281.6 156.1 287.7 159.2 291.15 160.3C293.25 160.95 294 161.4 294 162.1C294 162.95 293.7 163 291.5 162.7L289.05 162.4L289.3 166.05C289.7 170.95 292.2 178.25 295.25 183.4C298.3 188.55 313.85 209.2 317.75 213.3C318 213.6 318.7 214.45 319.25 215.25C319.8 216 321.4 218.1 322.75 219.95C324.15 221.75 325.75 224 326.25 224.9C326.8 225.75 327.4 226.5 327.6 226.5C327.8 226.5 328 226.8 328 227.2C328 227.6 328.2 228 328.4 228.1C328.65 228.2 329.85 229.95 331.1 232C332.35 234.05 334.4 237.3 335.65 239.2C338.85 244 340.85 251.35 342 262.5C342.55 267.9 342.65 279.2 342.2 282.7L341.85 285H339.5C337.3 285 337.1 284.9 336.5 283.4Z" fill="#EACDBC"/>
<path d="M332.75 174.65C327.95 173.65 326.85 173.05 326.15 171C325.4 168.75 325.35 163.15 326.05 160.95C327.5 156.65 331.55 154.65 337.95 155.1C340.95 155.35 341.85 155.7 347.9 159.2C351.55 161.3 354.75 163 355 163C355.3 163 355.5 163.35 355.5 163.75C355.5 164.15 355.2 164.5 354.8 164.5C353.95 164.5 353.05 165.55 352.85 166.8C352.65 168 348.7 172 347.75 172C347.35 172 347 172.2 347 172.4C347 172.95 344 174.25 341.25 175C338.65 175.65 337.05 175.6 332.75 174.65Z" fill="#EACDBC"/>
<path d="M288 136.15C287.3 136.05 285.55 135.6 284.15 135.2L281.5 134.45V132.35C281.5 130.3 281.6 130.15 284.15 128.6C288.35 126.1 290.85 125.35 295.5 125.3C299.6 125.25 303 126.05 303 127.05C303 127.3 303.3 127.5 303.65 127.5C304.7 127.5 306.5 129.7 306.5 131C306.5 133.35 305.35 135.45 303.85 136C302.45 136.45 290.65 136.6 288 136.15Z" fill="#EACDBC"/>
<path d="M260 123.1C260 122.8 259.2 122.7 258 122.85C256 123.15 256 123.1 256.45 121.85C256.9 120.65 256.65 120.3 253.4 117.15C246.55 110.55 242.5 103.4 242.15 97.25C241.8 91.15 243.8 89.45 249.1 91.35L252.1 92.45L250.05 90.25C248.9 89 248 87.9 248 87.75C248 87.6 248.7 87.5 249.5 87.5C250.75 87.5 251 87.7 251 88.8C251 89.75 251.35 90.2 252.5 90.55C253.4 90.9 254 91.45 254 91.95C254 92.85 257.5 96 258.45 96C258.75 96 259 96.35 259 96.75C259 97.2 259.35 97.65 259.75 97.8C260.15 98 260.5 98.55 260.5 99.05C260.5 99.6 260.9 100.2 261.4 100.35C261.85 100.55 262.55 100.95 262.85 101.3C264.05 102.45 266 106.65 266 108C266 108.95 266.3 109.45 266.9 109.6C268.05 109.9 268.5 112.15 268.5 117.8C268.5 120.45 268.3 122.05 267.9 122.4C267 123.1 260 123.75 260 123.1Z" fill="#EACDBC"/>
<path d="M163.75 26.75C162.55 25.8 162.45 25.55 163.15 25.5C164.2 25.5 166.5 26.9 166.5 27.55C166.5 28.35 165.25 28 163.75 26.75Z" fill="#EACDBC"/>
<path d="M182 17.8C179.7 16.1 178.1 14.5 178.75 14.5C179.8 14.5 184.45 17.85 184.5 18.65C184.5 19.7 184.65 19.75 182 17.8Z" fill="#EACDBC"/>
<path d="M327.85 671.65C327.75 671.15 327.45 670.35 327.25 669.9C327 669.3 327.1 669 327.55 669C327.9 669 328.8 668.4 329.55 667.7C330.65 666.65 331.55 666.35 334.1 666.15C337 665.9 337.35 666 338.45 667.2L339.65 668.5H337.15C335.2 668.5 334.15 668.85 332.2 670.1C330.85 671 329.7 671.9 329.6 672.1C329.25 672.85 328.1 672.5 327.85 671.65Z" fill="#EECDAB"/>
<path d="M20.8998 667.3C20.0998 664.5 19.7998 662.8 20.0998 662.3C20.3498 661.85 20.7498 661.6 21.0498 661.75C21.2998 661.95 21.4998 661.8 21.4998 661.55C21.4998 661.25 21.0498 661 20.5498 661C19.2498 661 18.7998 660.2 19.7998 659.8C20.2498 659.65 22.1998 659.5 24.1498 659.5C27.1998 659.55 27.5998 659.65 26.7498 660.15C26.1498 660.5 25.7998 661.15 25.8998 661.65C25.9998 662.2 25.7498 662.5 25.1498 662.5C23.6498 662.5 22.9998 663.45 23.5998 664.75C24.2998 666.3 25.9998 666.95 28.3498 666.65C30.1998 666.4 30.5498 666.55 32.7498 668.7L35.1998 671H33.3498C31.8498 671 31.4998 670.8 31.4998 670C31.4998 668.65 30.1998 668.7 26.3998 670.25C24.6998 670.95 23.0498 671.5 22.7498 671.5C22.4498 671.5 21.5998 669.6 20.8998 667.3Z" fill="#EECDAB"/>
<path d="M265.4 660.75C264.45 658.6 265.7 657.15 270.65 654.6C271.95 653.9 272.15 653.95 273.25 655L274.5 656.15L271.85 657.8C270.45 658.7 268.65 660 267.95 660.7C266.35 662.3 266.1 662.3 265.4 660.75Z" fill="#EECDAB"/>
<path d="M296.65 631.4C295.65 629.85 292 627.5 290.5 627.5H289L290.25 625.55C291.3 624 291.8 623.65 292.65 623.9C295.2 624.55 300.25 629.15 299.75 630.4C299.6 630.75 299.5 631.3 299.5 631.55C299.5 632.25 297.1 632.1 296.65 631.4Z" fill="#EECDAB"/>
<path d="M325 545.55C325 542.45 325.65 539.5 326.3 539.5C326.95 539.5 327.25 540.4 327.05 541.9C327 542.2 327.4 542.5 328 542.5C328.6 542.5 329 542.15 329 541.65C329.05 540.7 330.1 539 330.7 539C330.85 539 331 539.9 331 541C331 542.1 330.8 543 330.55 543C330.3 543 330 543.9 329.8 545C329.5 547 329.5 547 327.25 547C325.1 547 325 546.95 325 545.55Z" fill="#EECDAB"/>
<path d="M308.45 516.65C308.2 513.9 308.3 513.75 310.45 512.6C311.65 511.95 312.95 511.55 313.35 511.7C314.2 512.05 314.2 511.2 313.4 510.8C313.05 510.65 313.2 510.55 313.75 510.65C314.3 510.7 315.05 510.55 315.4 510.35C315.8 510.05 316 510.35 316 511.3C316 512.8 314.75 514.1 311.9 515.55C310.85 516.1 310 516.75 310 517C310 517.9 308.5 517.5 308.45 516.65Z" fill="#EECDAB"/>
<path d="M173.05 507.9C173.1 507.25 173.25 506.1 173.45 505.35L173.75 503.9L174.9 505.45C175.85 506.75 176.2 506.95 177 506.5C177.55 506.2 178 506.1 178 506.3C178 506.45 178.35 506.35 178.75 506C179.15 505.65 179.8 505.5 180.2 505.65C180.55 505.8 181.15 505.65 181.45 505.35C181.85 504.95 182 505.15 182 506.2C182 508.35 180.75 508.95 176.65 509C173.2 509 173 508.95 173.05 507.9Z" fill="#EECDAB"/>
<path d="M189.85 495.75C190 495.25 189.85 494.7 189.45 494.45C188.9 494.1 188.95 494 189.7 494C190.25 494 191.1 493.6 191.6 493.15C192.55 492.3 192.55 492.35 192.4 494.25C192.25 496 192.1 496.25 190.9 496.4C189.75 496.55 189.55 496.4 189.85 495.75Z" fill="#EECDAB"/>
<path d="M193.55 489.65C193.9 488.65 193.85 488.25 193.4 487.9C192.9 487.6 192.95 487.5 193.6 487.5C194.1 487.5 194.7 487.05 195 486.5C195.8 485.05 196.5 485.3 196.5 487C196.5 489.3 195.5 491 194.2 491C193.15 491 193.05 490.85 193.55 489.65Z" fill="#EECDAB"/>
<path d="M319.75 486.25C319.2 485.95 317.75 484.75 316.5 483.6L314.25 481.5H316.15C317.65 481.5 318 481.7 318 482.5C318 483.25 318.35 483.5 319.25 483.5C320.6 483.5 321.2 484.35 320.9 485.85C320.8 486.65 320.6 486.7 319.75 486.25Z" fill="#EECDAB"/>
<path d="M196 484.75C196 484.65 196.25 483.95 196.6 483.25C197.1 482.15 197.05 481.85 196.45 481.45C195.9 481.1 196 481 196.9 481C197.55 481 198 480.7 198 480.25C198 479.85 198.25 479.5 198.5 479.5C199.05 479.5 199.15 482.1 198.7 483.9C198.5 484.65 198 485 197.2 485C196.55 485 196 484.9 196 484.75Z" fill="#EECDAB"/>
<path d="M199 477.05C199 476.5 198.7 475.95 198.4 475.85C198 475.7 198.1 475.55 198.65 475.55C199.55 475.5 199.9 474 199 474C198.1 474 198.45 473 199.4 472.95C199.9 472.95 200 472.8 199.65 472.65C198.7 472.3 198.85 471 199.9 470.95C200.4 470.95 200.5 470.8 200.15 470.65C199.25 470.3 199.35 469 200.25 469C200.65 469 201 468.8 201 468.5C201 468.25 200.8 468 200.5 468C199.6 468 199.95 466 200.9 465.95C201.4 465.95 201.5 465.8 201.15 465.65C200.25 465.3 200.35 464 201.25 464C201.65 464 202 463.65 202 463.25C202 462.85 201.8 462.5 201.5 462.5C201.25 462.5 201 462.15 201 461.75C201 461.35 201.3 461 201.7 461C202.65 461 203.1 459 202.2 458.65C201.25 458.3 201.3 457 202.25 457C202.7 457 203 456.55 203 455.75C203 455.05 202.8 454.5 202.5 454.5C202.25 454.5 202 454.05 202 453.5C202 452.95 202.35 452.5 202.75 452.5C203.8 452.5 203.7 451.6 202.65 451.35C201.9 451.15 201.85 451.1 202.55 451.05C203.75 451 204.1 449.1 203.1 448.5C202.35 448.1 202.35 448 203.25 448L204.25 447.95L203.25 447.5C202.4 447.15 202.4 447.05 203.15 447.05C203.8 447 204 446.55 204 444.8C204 443.5 203.75 442.5 203.4 442.35C203 442.2 203.1 442.05 203.65 442.05C204.1 442 204.5 441.6 204.5 441.1C204.5 440 205.8 438.1 206.25 438.55C206.8 439.1 204.2 462.9 202.8 470C201.7 475.8 200.9 478 199.9 478C199.35 478 199 477.6 199 477.05Z" fill="#EECDAB"/>
<path d="M316 451.75C316 450.95 315.7 450.5 315.25 450.5C314.75 450.5 314.5 449.95 314.5 448.75C314.5 446.55 315.15 446.5 316.2 448.7C316.65 449.65 317.2 450.5 317.45 450.6C317.65 450.7 318.05 451.25 318.2 451.9C318.5 452.85 318.4 453 317.3 453C316.25 453 316 452.75 316 451.75Z" fill="#EECDAB"/>
<path d="M209 438.3C209 437.35 210.85 436.95 211.2 437.85C211.65 438.95 211.6 439 210.25 439C209.5 439 209 438.7 209 438.3Z" fill="#EECDAB"/>
<path d="M266.5 432.25C266.5 431.85 266.1 431.5 265.65 431.5C264.9 431.5 264.9 431.45 265.75 430.85C266.25 430.45 266.5 429.9 266.3 429.6C266.05 429.2 266.3 429 266.95 429C267.85 429 268 429.3 268 431C268 432.45 267.8 433 267.25 433C266.85 433 266.5 432.65 266.5 432.25Z" fill="#EECDAB"/>
<path d="M191.4 415.65C190.9 415.55 190.5 415.1 190.5 414.7C190.5 414.2 191.15 414 192.75 414C194.65 414 195 414.15 195 415C195 415.75 194.7 416 193.65 415.95C192.85 415.9 191.85 415.8 191.4 415.65Z" fill="#EECDAB"/>
<path d="M343.85 402C344 401.45 344.55 401 345.1 401C345.9 401 345.95 401.15 345.5 402C345.2 402.55 344.65 403 344.3 403C343.85 403 343.7 402.65 343.85 402Z" fill="#EECDAB"/>
<path d="M337.5 283.9C337.55 282 337.6 281.85 338.2 282.65C339 283.7 340.5 283.8 340.5 282.75C340.5 282.35 340.85 282 341.3 282C341.9 282 342 282.45 341.9 283.9C341.75 285.7 341.7 285.75 339.65 285.9L337.5 286.05V283.9Z" fill="#EECDAB"/>
<path d="M341 269.75C341 269.35 340.65 269 340.2 269C339.5 269 339.5 268.9 340.2 268.25C340.6 267.8 340.85 267.15 340.7 266.75C340.5 266.25 340.7 266 341.45 266C342.35 266 342.5 266.3 342.5 268.25C342.5 269.9 342.3 270.5 341.75 270.5C341.35 270.5 341 270.15 341 269.75Z" fill="#EECDAB"/>
<path d="M315 243.15C315.05 241.45 315.1 241.35 315.7 242.1C316.05 242.6 316.5 242.85 316.65 242.65C316.85 242.5 317 242.6 317 242.9C317 243.15 317.15 243.75 317.3 244.2C317.55 244.8 317.3 245 316.3 245C315.15 245 315 244.8 315 243.15Z" fill="#EECDAB"/>
<path d="M334.15 240.2C333.5 239.55 333.3 239 333.65 239C334.05 239 334.1 238.85 333.7 238.6C333.4 238.4 333.05 237.85 332.85 237.35C332.35 235.95 334.15 236.45 334.75 237.9C335 238.5 335.4 239 335.6 239C335.85 239 336 239.55 336 240.25C336 241.75 335.6 241.75 334.15 240.2Z" fill="#EECDAB"/>
<path d="M328.4 173.6C327.75 173.5 327.5 172.95 327.5 171.85V170.3L328.55 171.35C329.75 172.55 329.65 173.85 328.4 173.6Z" fill="#EECDAB"/>
<path d="M280.2 157.5C279.6 157.3 279 156.75 278.85 156.3C278.65 155.85 278.15 155.5 277.7 155.5C277.2 155.5 277 155.35 277.15 155.15C277.35 155 277.25 154.55 276.95 154.15C276.5 153.65 276.7 153.5 277.95 153.5C278.95 153.5 279.5 153.75 279.5 154.2C279.5 154.6 280 155 280.65 155.1C281.45 155.2 281.8 155.65 281.9 156.65C282.1 158.1 281.85 158.2 280.2 157.5Z" fill="#EECDAB"/>
<path d="M300.5 135.55C300.5 135.1 301.65 134.45 302.9 134.2C303.85 134 304.05 133.75 304.15 132.55C304.2 132 304.45 131.5 304.7 131.5C304.95 131.5 304.65 130.95 304 130.25C303.35 129.55 302.65 129 302.4 129C302.15 129 301.5 128.55 300.9 128L299.8 127H301.9C303.9 127 304 127.1 304 128.45C304 129.75 304.2 129.95 305.65 130.1C307.2 130.25 307.25 130.35 307.4 132.55C307.55 134.8 307.45 134.9 305.95 135.45C304.05 136.1 300.5 136.2 300.5 135.55Z" fill="#EECDAB"/>
<path d="M281 132.75V130.5H282.9C284.55 130.55 284.65 130.6 283.9 131.2C282.65 132.15 282.8 132.95 284.25 133.3C286.45 133.85 285.75 135 283.25 135H281V132.75Z" fill="#EECDAB"/>
<path d="M258.5 123.3C256.75 122.9 256.25 122.55 256.4 121.85C256.5 121.4 256.75 121.1 257 121.25C257.2 121.4 257.3 121.05 257.15 120.5C257 119.95 257.1 119.5 257.4 119.5C258.1 119.5 261.2 121.15 261.4 121.65C261.5 121.85 261.85 121.85 262.15 121.65C262.5 121.45 263.45 121.25 264.25 121.25C265.1 121.2 266.05 121.05 266.4 120.8C267.1 120.35 267.2 118 266.5 118C266.25 118 266 117.35 266 116.5C266 115.7 266.25 115 266.5 115C266.8 115 267 114.8 267 114.5C267 114.25 266.65 114 266.25 114C265.85 114 265.5 113.8 265.5 113.5C265.5 113.25 265.75 113 266 113C266.9 113 266.5 111.4 265.55 111.15C264.3 110.85 263.2 108.5 264.1 107.95C264.55 107.65 264.5 107.45 263.85 107.2C263.4 107.05 263.15 106.7 263.3 106.45C263.45 106.2 263.3 106 263 106C262.7 106 262.55 105.8 262.75 105.5C263.15 104.85 261.9 103 261.1 103C260.75 103 260.6 102.8 260.75 102.5C260.9 102.25 260.7 102 260.3 102C259.9 102 259.3 101.55 259 101C258.7 100.45 258.65 100 258.85 100C259.05 100 258.7 99.65 258.1 99.2C257.5 98.8 257.1 98.2 257.25 97.95C257.45 97.7 257.25 97.5 256.9 97.5C256 97.45 252.45 94.35 252.35 93.5C252.25 93.1 252.05 92.45 251.85 92.15C251.55 91.7 251.85 91.5 252.9 91.5C254.1 91.5 255.15 92.3 258.7 96.1C262.35 99.95 263 100.9 263 102.35C263 103.65 263.2 104 264 104C265.15 104 267.5 108.2 267.5 110.2C267.5 110.85 267.75 111.5 268.1 111.6C268.45 111.75 268.75 113.45 268.9 116.15C269.1 120.3 269.1 120.5 268.05 120.5C267.2 120.5 267 120.8 267 121.95C267 122.8 266.7 123.5 266.2 123.7C265 124.15 261.05 123.95 258.5 123.3Z" fill="#EECDAB"/>
<path d="M244.05 75.4C242.1 73.75 241.5 72.9 241.5 71.8C241.5 70.6 241.6 70.5 242.25 71C242.65 71.3 243.2 71.45 243.5 71.25C243.8 71.05 244.45 71.2 244.9 71.55C245.35 71.95 245.2 71.6 244.55 70.85L243.35 69.5H244.7C246.75 69.5 250.5 73.55 250.5 75.8C250.5 77.45 250.45 77.5 248.55 77.5C247 77.5 246.1 77.1 244.05 75.4Z" fill="#EECDAB"/>
<path d="M168.15 29.45C166.15 28.35 164.5 27.2 164.5 26.95C164.5 26.25 165.15 26.4 168.95 28.1C171.4 29.25 172.5 30 172.5 30.6C172.5 31.85 172.25 31.75 168.15 29.45Z" fill="#EECDAB"/>
<path d="M32.95 695.65C27.8 691 22 678.8 22 672.55C22 669.95 22 669.95 24.25 669C25.45 668.5 27.4 667.8 28.5 667.5C30.45 667 30.6 667.05 32.8 668.85C36.55 672 40.4 677.7 44.9 686.7C47.4 691.75 47.45 692.95 45.45 694.9C43.55 696.75 41.35 697.5 37.65 697.5C35.3 697.5 34.75 697.3 32.95 695.65Z" fill="#F6CC78"/>
<path d="M338.1 694.15C336.55 692.5 334.9 690.5 334.5 689.7C334.1 688.9 333.2 687.25 332.45 686C330.1 681.85 328 675.75 328 672.9C328.05 670.25 328.05 670.25 330.65 668.65C332.7 667.35 333.8 667 335.8 667C338.3 667 338.35 667.05 341.05 670.3C346.15 676.45 352.5 688.15 352.5 691.4C352.5 694.65 349.9 696.4 344.45 696.85L340.9 697.15L338.1 694.15Z" fill="#F6CC78"/>
<path d="M279.75 681.6C276 679.3 269.4 671.1 267.15 666C265.45 662.1 265.3 660.25 266.6 659C267.95 657.8 272.1 655 272.6 655C273.5 655 278.45 658.35 280.65 660.45C285.8 665.35 292.5 674.55 292.5 676.7C292.5 677.45 291.75 678.55 290.55 679.65C287.4 682.5 282.6 683.35 279.75 681.6Z" fill="#F6CC78"/>
<path d="M283.6 655.5C280.55 653.3 278.5 650.25 278.5 647.95C278.5 643.1 284.1 631.95 288.9 627.3C291.3 625.05 292.4 625.1 295.65 627.65C299.6 630.75 299.65 630.85 299.35 633.95C298.9 638.5 294.1 649.3 290.25 654.65C288.1 657.5 286.65 657.7 283.6 655.5Z" fill="#F6CC78"/>
<path d="M12.5 625.1C12.5 619.15 14.5 602.45 17.7 582C18.65 575.9 21.4 555.9 23.5 539.5C26.4 517.25 28.65 504.55 30.5 500.35C31.8 497.45 35 494.55 42.3 489.65C52.35 482.9 56.25 478.65 58.45 472.1C59.9 467.8 59.85 465.8 57.7 450.5C57.3 447.6 56.65 442.55 56.25 439.25C55.85 435.95 55.4 432.6 55.25 431.75C54.45 427.15 53.5 411.55 53.5 403.25C53.55 382.15 56.75 365.3 63.55 351C66.55 344.7 68.05 342.25 72.85 335.95C79.4 327.3 88.4 319.6 96.1 316.05C108.15 310.45 120.95 308.5 145.3 308.5C159.15 308.5 167.2 308.8 188.25 310C192.95 310.3 203.95 310.65 212.75 310.8C235.45 311.25 246.4 310.3 256.75 307C274.15 301.4 280.55 289.35 277 268.8C275.2 258.5 272.3 249.9 262 224C253.45 202.5 250.05 192.45 247.45 180.5C246.4 175.8 246.3 174 246.3 163.75C246.35 153.3 246.5 151.65 247.7 146C248.4 142.55 249.6 137.9 250.3 135.75C252 130.45 255.55 122.95 257 121.6C258.1 120.6 258.3 120.55 259.3 121.25C259.9 121.65 261.3 122.1 262.4 122.3C265.05 122.7 266.95 121.1 267.35 118.15C267.95 113.65 263.85 104.8 258.25 98.6499C256.75 96.9499 255.5 95.45 255.5 95.3C255.5 94.85 258.4 94.9499 259.4 95.4499C259.85 95.6999 261.05 96.2 262 96.55C263 96.95 265.45 98.9999 267.8 101.4C271.55 105.3 272.05 105.65 275.3 106.55C283.05 108.7 285.4 109.65 286.2 111.05C286.8 112.1 287.5 112.45 289.35 112.7C294.45 113.45 298.45 114.7 303.8 117.3L309.4 119.95L312.25 125.6C313.85 128.7 315.85 132.4 316.75 133.75C320.7 140 328.2 147 336.65 152.3C340.2 154.6 341 155.3 341 156.3C341 157 340.8 157.45 340.6 157.3C340.35 157.15 339.15 156.9 337.9 156.75C333 156.1 328.65 158.6 327.5 162.8C326.75 165.35 327.15 169.1 328.25 170.8C329.2 172.3 329.2 173.5 328.25 173.5C327.05 173.5 322.25 170.9 316.75 167.3C314 165.5 311.45 164 311 164C310.6 164 308.8 164.25 307.05 164.55C303.05 165.15 298.15 164.5 291.5 162.4C284 160.05 281.35 158.4 275.85 152.8L270.95 147.85L269 149.75C266.5 152.2 265.2 155.3 264.15 161.45C263.4 165.75 263.35 167 263.9 170.7C265.65 182.75 270.55 192.9 280.2 204.5C282.15 206.85 289.7 214.7 297.05 222C313.5 238.4 318.1 244.15 326.5 258.7C329.25 263.5 335.7 276.45 338.25 282.4C338.75 283.55 339.4 284.45 339.7 284.35C340.5 284.1 340.9 280.6 340.95 274.45C341.05 262.25 338.45 247.75 334.9 240.85C334.35 239.75 334.05 238.8 334.15 238.7C334.65 238.2 336.05 239.2 336.3 240.3C336.45 240.95 336.75 241.5 336.95 241.5C337.1 241.5 337.7 242.35 338.25 243.35C338.8 244.4 340.45 247.4 341.9 250C348.6 261.85 352.4 272.35 354.05 283.5C355.8 295.15 355 312.25 352 328.05C351.55 330.55 351.65 331.55 353 337.2C355.7 348.55 356.55 354.4 356.85 362.75C357.1 369.75 357 371.45 356 376.25C355.4 379.3 354.35 383.35 353.65 385.25C352.5 388.45 347.55 398.8 345.95 401.4C345.1 402.7 344 402.85 343.95 401.65C343.8 398.45 341.75 395.75 338.95 395C329.65 392.5 312.25 408.35 308.8 422.45C308.1 425.35 308.1 426.05 308.8 429.3C310.3 436.6 314.2 445.95 318.7 452.9C321.05 456.6 325.85 462.15 328.1 463.8C328.85 464.4 330.35 465.95 331.35 467.3C333.95 470.8 340.15 478.05 341.5 479.25C343.2 480.75 350.5 489.3 353.05 492.75C354.25 494.4 355.7 496.75 356.2 497.9C357.15 500 357.15 500.15 356.25 503.9C354.1 513.1 345.7 532.4 330.8 562.5L326.45 571.2L326.6 595.6L326.75 620H325.65C325 620 324.5 619.8 324.5 619.6C324.5 619.35 323.55 617.7 322.45 615.95L320.4 612.8L319.5 613.9C319 614.5 318.15 615 317.6 615C316.35 615 316.15 613.95 315.7 604.85C315.4 599.15 315.25 598 314.65 598.2C314.25 598.4 313.8 598.5 313.7 598.5C313.6 598.5 313.5 598.85 313.5 599.25C313.5 599.65 313.3 600 313 600C312.05 600 312.5 596.1 313.9 592.7C314.7 590.8 316.65 586.5 318.25 583.15C320.6 578.2 321 576.9 320.55 576.3C319.7 575.3 317.1 576.25 316.4 577.8C316.05 578.55 315.4 579 314.75 579C313.4 579 313.25 578 312.45 566.75C312.2 562.65 311.75 557.1 311.45 554.5C311.2 551.9 310.75 546.6 310.45 542.75C310.2 538.9 309.75 532.95 309.45 529.5C309.2 526.05 308.85 521.45 308.65 519.2L308.35 515.15L311.1 513.65C316.7 510.45 320.95 504.15 323.05 495.85C323.6 493.6 324.2 491.35 324.3 490.9C324.6 489.8 319.2 485.3 301.45 472C281 456.65 277.1 453.6 273.45 450C270.4 446.95 270.1 446.45 268.55 441.75C267.55 438.75 266.75 435 266.45 432.2C265.75 424.7 264.6 417.6 263.8 416.05C263.35 415.2 262.5 414.5 261.75 414.4C261.05 414.25 256.95 414.65 252.55 415.25C233.7 417.95 215.75 418.45 200.5 416.65C170.4 413.05 155.25 413 144.75 416.3C140.85 417.55 134.8 420.7 131.6 423.15C123 429.85 116.8 438.9 113.5 449.75C112.7 452.5 111.5 455.65 110.9 456.75C107.25 463.55 96.7 477.3 90.25 483.75C84.1 489.95 83.8 490.2 73.25 499C69.15 502.45 62.15 508.85 57.75 513.25C42.75 528.15 36.7 538.4 33 554.95C30.05 568.35 28.1 596.1 28.7 617.15C29.05 629.5 29.05 629.55 23.7 624C20.45 620.6 20.3 620.55 19.35 621.35C18.85 621.85 17.5 624.1 16.4 626.35C14.95 629.4 14.15 630.5 13.45 630.5C12.55 630.5 12.5 630.1 12.5 625.1ZM329.95 539.4C334.95 525.35 337.95 516 338.75 511.85C339.55 507.7 339.55 507.35 338.75 505.2C338.15 503.65 336.35 501.3 333.1 497.9C330.45 495.2 327.95 492.75 327.55 492.5C326.85 492.15 326.75 494.7 326.75 518.8C326.75 536.95 326.9 545.5 327.25 545.5C327.55 545.5 328.75 542.75 329.95 539.4ZM303.4 138.7C304.8 138.1 306 137.35 306 137.15C306 136.9 305.65 136.2 305.15 135.55C304.4 134.45 304.4 134.3 305.15 133.75C305.65 133.4 306 132.95 306 132.65C306 131.9 302.4 128.7 300.5 127.7C298.1 126.5 293.5 126.55 290.1 127.9C284.65 130 280.6 133.5 283.55 133.5C284.15 133.5 285.55 134.25 286.7 135.15C289.75 137.65 291.1 138.45 294 139.45C297.15 140.55 299.7 140.35 303.4 138.7Z" fill="#F37A1D"/>
<path d="M230.45 624.35C213.75 601.95 189.35 562.9 178 540.45C172.85 530.3 171 525.25 171 521.4C171 519 172.5 509.6 173.2 507.4C173.35 506.9 173.6 506.15 173.75 505.65C174 504.95 174.25 505.05 175.4 506.15C177.25 507.95 178.3 507.85 181.1 505.6C188.05 500 195.55 488.05 199.25 476.5C201.45 469.55 202.25 464.7 204.2 445.8C204.75 440.8 205.1 439.15 205.75 438.7C206.9 437.85 210.5 437.3 211.05 437.85C212.5 439.3 212.9 452.55 211.75 462C210.75 470.6 209.7 474.2 204.05 488.7C196.2 508.75 194 516.4 194 523.85C194 530.4 196.75 542.4 200.7 553.25C204.55 563.8 213.45 580.35 220.95 590.75C222.55 592.95 224.6 595.9 225.5 597.25C226.45 598.65 228.55 601.45 230.25 603.5C231.95 605.55 235.05 609.4 237.15 612L241 616.75L239.55 616.9C238.7 617 237.65 616.85 237.1 616.55C235.1 615.5 234.75 616.55 234.9 623.25C235 626.7 234.85 629.5 234.65 629.5C234.45 629.5 232.55 627.2 230.45 624.35Z" fill="#F37A1D"/>
<path d="M12.5 630.15C12.55 629.2 13.6 627.5 14.2 627.5C14.35 627.5 14.5 628.3 14.5 629.25C14.5 630.65 14.3 631 13.5 631C12.85 631 12.5 630.65 12.5 630.15Z" fill="#BB7F49"/>
<path d="M325 619.15C325 616.85 325 616.85 325.9 617.8C326.45 618.35 326.95 619.4 327.1 620.15C327.3 621.3 327.2 621.5 326.2 621.5C325.1 621.5 325 621.3 325 619.15Z" fill="#BB7F49"/>
<path d="M316.5 615.5C316.5 614.65 316.95 613.5 317.5 612.9L318.5 611.8V614.4C318.5 616.65 318.35 617 317.5 617C316.7 617 316.5 616.65 316.5 615.5Z" fill="#BB7F49"/>
<path d="M313.5 578.75C313.5 578.3 313.95 577.5 314.5 576.9L315.5 575.8V577.65C315.5 579.15 315.3 579.5 314.5 579.5C313.95 579.5 313.5 579.15 313.5 578.75Z" fill="#BB7F49"/>
<path d="M285.5 129.55C285.5 129.05 287 128.35 287.35 128.7C287.5 128.8 287.1 129.15 286.55 129.5C285.95 129.8 285.5 129.85 285.5 129.55Z" fill="#BB7F49"/>
<path d="M281.75 110.55C280.1 110.1 278.45 109.55 278.15 109.35C277.8 109.15 275.9 108.55 273.95 108C270.5 107.1 270.15 106.9 266.3 102.9C264.05 100.6 261.6 98.45 260.75 98.15C259.95 97.85 258.8 97.4 258.25 97.2C257.7 97 257.1 96.8 256.9 96.8C256.75 96.75 252.25 92.35 246.9 87C237.15 77.15 228.75 69.9 217.75 61.75C214.45 59.3 210.65 56.5 209.25 55.45C202.5 50.5 181.25 36.85 171.9 31.45C169.75 30.25 168.05 28.95 168 28.65C168 27.9 169.05 27.8 169.8 28.4C170.05 28.65 173.65 30.25 177.75 32C195.7 39.6 216.3 51.2 230.5 61.7C232 62.85 233.8 64.1 234.5 64.55C235.2 65 238.5 67.75 241.9 70.7C245.3 73.6 248.3 76 248.6 76C249.35 76 248.2 74.65 241.55 67.9L235.75 62H237.65C239.15 62 239.5 62.2 239.5 63C239.5 63.65 239.85 64 240.5 64C241.3 64 241.5 64.35 241.5 65.7C241.5 67.35 241.6 67.45 243.4 67.6C245.1 67.75 245.25 67.9 245.4 69.35C245.5 70.45 246.15 71.5 247.55 72.7C248.6 73.7 249.7 74.5 249.95 74.5C250.55 74.5 265.45 89.35 269.85 94.35C271.8 96.55 275.05 100.55 277 103.2C280.15 107.4 280.9 108.05 282.7 108.55C284.6 109.05 286 110.1 286 111.1C286 111.65 285.2 111.55 281.75 110.55Z" fill="#BB7F49"/>
<path d="M184 19.2C180.35 16.3 180.6 15.7 184.55 17.85C186.1 18.7 187 19.5 187 20.1C187 21.35 186.6 21.2 184 19.2Z" fill="#BB7F49"/>
<path d="M12.5 630.7C12.5 629.65 13.4 628 14 628C14.3 628 14.5 628.8 14.5 629.75C14.5 631.15 14.3 631.5 13.5 631.5C12.95 631.5 12.5 631.15 12.5 630.7Z" fill="#A86D45"/>
<path d="M283.75 110.75C283.5 110.65 282.3 110.3 281.2 110C279.35 109.55 278.65 108.9 275.5 104.7C270.45 97.95 265.85 92.8 257.95 85C254.2 81.3 249.45 76.35 247.4 74C236.75 61.7 211.45 39.4 191 24.25C186.35 20.85 185.15 19.65 185.05 18.4C184.95 17.6 202.5 27.85 212 34.15C236.1 50.1 258.75 71.4 274.05 92.5C278 97.9 282.3 104.45 284.7 108.65C285.95 110.75 286 111 285.15 110.95C284.65 110.95 284.05 110.85 283.75 110.75Z" fill="#A86D45"/>
<path d="M18 660.1C16.55 659.4 16.15 658.75 15.4 656.35C14 651.75 12.9 642.8 12.8 635.75L12.75 629.25L14.85 624.9C16.95 620.7 18.85 618.5 20.45 618.5C20.85 618.5 22.95 620.25 25.05 622.4C29.6 627 29.3 625.8 29.8 644.1C30.2 657.85 30.15 658 26.85 660C24.8 661.3 20.4 661.35 18 660.1Z" fill="black"/>
<path d="M318.3 654.4C316.8 652.9 316.55 652.25 316.25 649.25C315.7 644.5 316.3 616.7 316.95 614.45C317.25 613.5 318.05 612.15 318.7 611.55C320.3 610.05 321.5 610.7 323.95 614.45C326.4 618.25 327.25 620.65 328.45 627.25C330.3 637.55 330.6 640.2 330.7 645.55C330.75 650.25 330.6 651.1 329.7 652.3C327.9 654.75 326.2 655.65 323 655.9C320.15 656.1 319.95 656.05 318.3 654.4Z" fill="black"/>
<path d="M254.2 652.6C251.15 650.35 245.2 643.9 239.7 636.75C236.9 633.2 234.4 629.8 234.1 629.25C233.4 627.9 232.75 619.15 233.2 616.9C233.4 615.75 233.95 614.95 234.75 614.5C237.3 613.15 239.5 614.95 250.55 627.15C261.35 639.2 263.3 641.7 263.8 644.25C264.25 646.75 263.15 650 261 652.1C258.65 654.45 256.95 654.55 254.2 652.6Z" fill="black"/>
<path d="M300.1 614.65C298.25 613.75 296.5 611.75 296.5 610.55C296.5 609.15 298.85 604.65 304.45 595.35C307.45 590.35 311.1 583.8 312.55 580.8C315.1 575.7 315.35 575.3 317.5 574.4C319.45 573.55 319.9 573.5 321 574.1C323.55 575.5 323.65 576.75 321.5 581C317.55 588.8 314.95 595.15 312 604.05C310.25 609.35 308.5 613.7 307.9 614.35C307.05 615.25 306.3 615.5 304.3 615.5C302.9 615.5 301 615.1 300.1 614.65Z" fill="black"/>
<path d="M347 161.1C332.9 152.9 324.75 146.9 319.55 140.9C316.15 136.95 314.3 134.1 311.1 127.75C309.75 125 308.05 121.95 307.4 121C305.3 117.9 305.3 117.8 307.5 119.05C311.3 121.2 316.95 128.5 317 131.3C317 131.65 317.75 132.6 318.65 133.5C320.25 135.05 331.3 142.55 337.5 146.25C350.5 154 357 159.3 357 162.15C357 163.2 355.3 164.5 353.95 164.45C353.3 164.45 350.15 162.9 347 161.1Z" fill="black"/>
<path d="M292.55 141C289.3 139.8 286.9 138.3 284.2 135.7C281.8 133.35 282.35 133.1 287.7 134.2C292.6 135.25 300.05 135.25 303.5 134.2C306.05 133.45 306.25 133.45 306.85 134.35C307.75 135.55 308.2 137.3 307.8 138.25C307.3 139.6 302.5 141.4 298.75 141.75C295.95 141.95 294.7 141.8 292.55 141Z" fill="black"/>
</g>
<defs>
<clipPath id="clip0_240_2">
<rect width="377" height="702" fill="white"/>
</clipPath>
</defs>
</svg>
